<?xml version="1.0" encoding="UTF-8" standalone="no"?>
<!-- Created with Inkscape (http://www.inkscape.org/) -->

<svg
   width="56"
   height="46"
   viewBox="0 0 14.816666 12.170833"
   version="1.1"
   id="svg5"
   inkscape:export-filename="icon-summary.svg"
   inkscape:export-xdpi="96"
   inkscape:export-ydpi="96"
   xmlns:inkscape="http://www.inkscape.org/namespaces/inkscape"
   xmlns:sodipodi="http://sodipodi.sourceforge.net/DTD/sodipodi-0.dtd"
   xmlns="http://www.w3.org/2000/svg"
   xmlns:svg="http://www.w3.org/2000/svg">
  <sodipodi:namedview
     id="namedview7"
     pagecolor="#505050"
     bordercolor="#eeeeee"
     borderopacity="1"
     inkscape:showpageshadow="0"
     inkscape:pageopacity="0"
     inkscape:pagecheckerboard="0"
     inkscape:deskcolor="#505050"
     inkscape:document-units="mm"
     showgrid="false" />
  <defs
     id="defs2" />
  <g
     inkscape:label="Layer 1"
     inkscape:groupmode="layer"
     id="layer1">
    <path
       d="m 9.1829181,6.4274981 c -0.1033198,-0.1033198 -0.2708539,-0.1033198 -0.3741737,0 -0.1033198,0.1033198 -0.1033198,0.2708539 0,0.3741737 z m 0.8712469,1.2454202 0.187086,0.1870869 c 0.10332,-0.1033198 0.10332,-0.270854 0,-0.3741738 z M 8.8087444,8.5441647 c -0.1033198,0.1033198 -0.1033198,0.270854 0,0.3741738 0.1033198,0.1033198 0.2708539,0.1033198 0.3741737,0 z M 4.7625032,7.4083349 c -0.1461267,0 -0.2645844,0.118454 -0.2645844,0.2645834 0,0.1461294 0.1184577,0.2645833 0.2645844,0.2645833 z M 5.633747,5.7433385 c 0.1033251,0.1033198 0.2708513,0.1033198 0.3741764,0 0.1033278,-0.1033198 0.1033278,-0.270846 0,-0.3741711 z M 4.7625032,4.4979209 4.5754137,4.3108341 c -0.1033264,0.103325 -0.1033264,0.2708513 0,0.3741763 z M 6.0079234,3.6266771 c 0.1033278,-0.1033251 0.1033278,-0.2708513 0,-0.3741774 -0.1033251,-0.1033264 -0.2708513,-0.1033264 -0.3741764,0 z m 4.0462416,1.1358272 c 0.146129,0 0.264583,-0.1184566 0.264583,-0.2645834 0,-0.1461241 -0.118454,-0.2645833 -0.264583,-0.2645833 z M 8.8087444,6.8016718 9.8670777,7.8600052 10.241251,7.4858314 9.1829181,6.4274981 Z M 9.8670777,7.4858314 8.8087444,8.5441647 9.1829181,8.9183385 10.241251,7.8600052 Z M 4.7625032,7.9375016 H 10.054165 V 7.4083349 H 4.7625032 Z M 6.0079234,5.3691674 4.9495901,4.3108341 4.5754137,4.6850104 5.633747,5.7433385 Z M 4.9495901,4.6850104 6.0079234,3.6266771 5.633747,3.2524997 4.5754137,4.3108341 Z M 10.054165,4.2333376 H 4.7625032 v 0.5291667 h 5.2916618 z"
       fill="#ffffff"
       id="path237"
       style="stroke-width:0.264583" />
  </g>
</svg>
