<?xml version="1.0" encoding="UTF-8" standalone="no"?>
<!-- Created with Inkscape (http://www.inkscape.org/) -->

<svg
   width="56"
   height="46"
   viewBox="0 0 14.816666 12.170833"
   version="1.1"
   id="svg5"
   inkscape:export-filename="icon-withdraw.svg"
   inkscape:export-xdpi="96"
   inkscape:export-ydpi="96"
   xmlns:inkscape="http://www.inkscape.org/namespaces/inkscape"
   xmlns:sodipodi="http://sodipodi.sourceforge.net/DTD/sodipodi-0.dtd"
   xmlns="http://www.w3.org/2000/svg"
   xmlns:svg="http://www.w3.org/2000/svg">
  <sodipodi:namedview
     id="namedview7"
     pagecolor="#505050"
     bordercolor="#eeeeee"
     borderopacity="1"
     inkscape:showpageshadow="0"
     inkscape:pageopacity="0"
     inkscape:pagecheckerboard="0"
     inkscape:deskcolor="#505050"
     inkscape:document-units="mm"
     showgrid="false" />
  <defs
     id="defs2" />
  <g
     inkscape:label="Layer 1"
     inkscape:groupmode="layer"
     id="layer1">
    <path
       d="m 6.3326848,5.3571142 c -0.103328,-0.103325 -0.270851,-0.103325 -0.374179,0 -0.103325,0.103328 -0.103325,0.270852 0,0.374187 z m 1.07569,1.449877 -0.187087,0.187087 c 0.10332,0.10332 0.270854,0.10332 0.374174,0 z m 1.44989,-1.07569 c 0.10332,-0.103335 0.10332,-0.270859 0,-0.374187 -0.103346,-0.103325 -0.270854,-0.103325 -0.3742,0 z m -1.185307,-2.291738 c 0,-0.146125 -0.118454,-0.264583 -0.264583,-0.264583 -0.14613,0 -0.264583,0.118458 -0.264583,0.264583 z m 2.6458342,3.367428 c 0,-0.146129 -0.118454,-0.264583 -0.264584,-0.264583 -0.1461292,0 -0.2645832,0.118454 -0.2645832,0.264583 z m -5.2916622,0 c 0,-0.146129 -0.118459,-0.264583 -0.264583,-0.264583 -0.146126,0 -0.264585,0.118454 -0.264585,0.264583 z m 0.931376,-1.07569 1.262782,1.262777 0.374174,-0.374174 -1.262777,-1.26279 z m 1.636956,1.262777 1.262803,-1.262777 -0.3742,-0.374187 -1.262777,1.26279 z m -0.45167,-3.554515 v 3.367428 h 0.529166 v -3.367428 z m 2.645833,3.367428 v 1.683703 h 0.5291672 v -1.683703 z m 0,1.683703 c 0,-0.0064 0.0025,-0.01249 0.007,-0.01701 l 0.3741982,0.3742 c 0.09472,-0.09475 0.147929,-0.223229 0.147929,-0.357187 z m 0.007,-0.01701 c 0.0045,-0.0045 0.01064,-0.007 0.01701,-0.007 v 0.529166 c 0.133958,0 0.2624402,-0.05321 0.3571872,-0.147928 z m 0.01701,-0.007 h -4.810601 v 0.529169 h 4.810598 z m -4.810599,0 c 0.0064,0 0.0125,0.0025 0.01701,0.007 l -0.37418,0.3742 c 0.09473,0.09472 0.223206,0.147929 0.35717,0.147929 z m 0.01701,0.007 c 0.0045,0.0045 0.007,0.01064 0.007,0.01701 h -0.529171 c 0,0.133958 0.05322,0.26244 0.147945,0.357187 z m 0.007,0.01701 v -1.683703 h -0.529171 v 1.683703 z"
       fill="#ffffff"
       id="path350"
       style="stroke-width:0.264583" />
  </g>
</svg>
