<?xml version="1.0" encoding="UTF-8" standalone="no"?>
<!-- Created with Inkscape (http://www.inkscape.org/) -->

<svg
   width="32"
   height="32"
   viewBox="0 0 8.4666663 8.4666664"
   version="1.1"
   id="svg5"
   inkscape:export-filename="icon-deposit.svg"
   inkscape:export-xdpi="96"
   inkscape:export-ydpi="96"
   xmlns:inkscape="http://www.inkscape.org/namespaces/inkscape"
   xmlns:sodipodi="http://sodipodi.sourceforge.net/DTD/sodipodi-0.dtd"
   xmlns="http://www.w3.org/2000/svg"
   xmlns:svg="http://www.w3.org/2000/svg">
  <sodipodi:namedview
     id="namedview7"
     pagecolor="#505050"
     bordercolor="#eeeeee"
     borderopacity="1"
     inkscape:showpageshadow="0"
     inkscape:pageopacity="0"
     inkscape:pagecheckerboard="0"
     inkscape:deskcolor="#505050"
     inkscape:document-units="mm"
     showgrid="false" />
  <defs
     id="defs2" />
  <g
     inkscape:label="Layer 1"
     inkscape:groupmode="layer"
     id="layer1">
    <path
       d="m 4.2333305,5.1152683 c 0.60886,0 1.10244,-0.493554 1.10244,-1.102413 0,-0.608862 -0.49358,-1.102437 -1.10244,-1.102437 -0.608851,0 -1.102426,0.493575 -1.102426,1.102437 0,0.608859 0.493575,1.102413 1.102426,1.102413 z m 0,0 c -0.36645,0 -0.725746,0.101308 -1.038061,0.293026 -0.312314,0.19169 -0.565443,0.466116 -0.731334,0.792876 m 1.769395,-1.085902 c 0.366448,0 0.725752,0.101308 1.038067,0.293026 0.312314,0.19169 0.565441,0.466116 0.731334,0.792876 m 0.8764327,-1.967838 c 0,1.461267 -1.1845657,2.645833 -2.6458337,2.645833 -1.461248,0 -2.645828,-1.184566 -2.645828,-2.645833 0,-1.461252 1.18458,-2.645831 2.645828,-2.645831 1.461268,0 2.6458337,1.184579 2.6458337,2.645831 z"
       stroke="#ffffff"
       stroke-width="1.5"
       stroke-linecap="round"
       stroke-linejoin="round"
       id="path405"
       style="fill:none;stroke-width:0.5;stroke-dasharray:none" />
  </g>
</svg>
