<?xml version="1.0" encoding="UTF-8" standalone="no"?>
<!-- Created with Inkscape (http://www.inkscape.org/) -->

<svg
   width="56"
   height="46"
   viewBox="0 0 14.816666 12.170833"
   version="1.1"
   id="svg5"
   inkscape:export-filename="icon-transfer.svg"
   inkscape:export-xdpi="96"
   inkscape:export-ydpi="96"
   xmlns:inkscape="http://www.inkscape.org/namespaces/inkscape"
   xmlns:sodipodi="http://sodipodi.sourceforge.net/DTD/sodipodi-0.dtd"
   xmlns="http://www.w3.org/2000/svg"
   xmlns:svg="http://www.w3.org/2000/svg">
  <sodipodi:namedview
     id="namedview7"
     pagecolor="#505050"
     bordercolor="#eeeeee"
     borderopacity="1"
     inkscape:showpageshadow="0"
     inkscape:pageopacity="0"
     inkscape:pagecheckerboard="0"
     inkscape:deskcolor="#505050"
     inkscape:document-units="mm"
     showgrid="false" />
  <defs
     id="defs2" />
  <g
     inkscape:label="Layer 1"
     inkscape:groupmode="layer"
     id="layer1">
    <path
       d="m 5.9585063,4.5152583 c -0.103325,0.1033277 -0.103325,0.2708513 0,0.374179 0.103327,0.1033251 0.270851,0.1033251 0.374179,0 z M 7.4083753,3.439563 7.5954623,3.2524751 c -0.10332,-0.1033264 -0.270854,-0.1033264 -0.374174,0 z m 1.07569,1.4498743 c 0.103346,0.1033251 0.270854,0.1033251 0.3742,0 0.10332,-0.1033277 0.10332,-0.2708513 0,-0.374179 z m -1.340274,1.9175545 c 0,0.1461294 0.118454,0.2645833 0.264584,0.2645833 0.146129,0 0.264583,-0.1184539 0.264583,-0.2645833 z m 3.1749997,0 c 0,-0.1461294 -0.118454,-0.2645833 -0.264583,-0.2645833 -0.1461287,0 -0.2645827,0.1184539 -0.2645827,0.2645833 z m -5.2916607,0 c 0,-0.1461294 -0.118459,-0.2645833 -0.264583,-0.2645833 -0.146127,0 -0.264585,0.1184539 -0.264585,0.2645833 z M 6.3326853,4.8894373 7.5954623,3.6266525 7.2212883,3.2524751 5.9585063,4.5152583 Z m 0.888603,-1.2627848 1.262777,1.2627848 0.3742,-0.374179 -1.262803,-1.2627832 z m 0.45167,3.1803393 V 3.439563 h -0.529167 v 3.3674288 z m 2.116667,0 V 8.4906941 H 10.318791 V 6.8069918 Z m 0,1.6837023 c 0,-0.0064 0.0025,-0.01249 0.007,-0.01701 l 0.3741997,0.3742 c 0.09472,-0.09475 0.147928,-0.223229 0.147928,-0.357187 z m 0.007,-0.01701 c 0.0045,-0.0045 0.01064,-0.007 0.01701,-0.007 v 0.529167 c 0.133958,0 0.2624397,-0.05321 0.3571867,-0.147929 z m 0.01701,-0.007 h -4.810558 v 0.529169 h 4.810598 z m -4.810599,0 c 0.0064,0 0.0125,0.0025 0.01701,0.007 l -0.374179,0.374201 c 0.09473,0.09472 0.223205,0.147928 0.357169,0.147928 z m 0.01701,0.007 c 0.0045,0.0045 0.007,0.01064 0.007,0.01701 h -0.529171 c 0,0.133959 0.05322,0.26244 0.147946,0.357188 z m 0.007,0.01701 V 6.8069918 h -0.529084 v 1.6837023 z"
       fill="#ffffff"
       id="path283"
       style="stroke-width:0.264583" />
  </g>
</svg>
