<?xml version="1.0" encoding="UTF-8" standalone="no"?>
<!-- Created with Inkscape (http://www.inkscape.org/) -->

<svg
   width="56"
   height="46"
   viewBox="0 0 14.816666 12.170833"
   version="1.1"
   id="svg5"
   inkscape:export-filename="bitmap.svg"
   inkscape:export-xdpi="96"
   inkscape:export-ydpi="96"
   xmlns:inkscape="http://www.inkscape.org/namespaces/inkscape"
   xmlns:sodipodi="http://sodipodi.sourceforge.net/DTD/sodipodi-0.dtd"
   xmlns="http://www.w3.org/2000/svg"
   xmlns:svg="http://www.w3.org/2000/svg">
  <sodipodi:namedview
     id="namedview7"
     pagecolor="#505050"
     bordercolor="#eeeeee"
     borderopacity="1"
     inkscape:showpageshadow="0"
     inkscape:pageopacity="0"
     inkscape:pagecheckerboard="0"
     inkscape:deskcolor="#505050"
     inkscape:document-units="mm"
     showgrid="false" />
  <defs
     id="defs2" />
  <g
     inkscape:label="Layer 1"
     inkscape:groupmode="layer"
     id="layer1">
    <path
       d="m 4.2814533,5.3637942 -0.13867,-0.22531 c -0.10083,0.062 -0.1481701,0.18348 -0.1159101,0.29739 0.0322,0.1139 0.1362001,0.19251 0.2545801,0.19251 z m 6.2537697,0 v 0.26459 c 0.11837,0 0.22235,-0.0786 0.25458,-0.19251 0.0322,-0.11391 -0.0151,-0.23535 -0.11591,-0.29739 z m -3.1268997,-1.92423 0.13867,-0.22532 c -0.085,-0.0523 -0.1923,-0.0523 -0.27734,0 z m -1.90018,1.92423 c 0,-0.1461 -0.11846,-0.26458 -0.26459,-0.26458 -0.14613,0 -0.26458,0.11848 -0.26458,0.26458 z m -0.52917,2.1648 c 0,0.1461 0.11845,0.26458 0.26458,0.26458 0.14613,0 0.26459,-0.11848 0.26459,-0.26458 z m 1.97236,-2.1648 c 0,-0.1461 -0.11845,-0.26458 -0.26458,-0.26458 -0.14613,0 -0.26459,0.11848 -0.26459,0.26458 z m -0.52917,2.1648 c 0,0.1461 0.11846,0.26458 0.26459,0.26458 0.14613,0 0.26458,-0.11848 0.26458,-0.26458 z m 1.97234,-2.1648 c 0,-0.1461 -0.11845,-0.26458 -0.26458,-0.26458 -0.14613,0 -0.26459,0.11848 -0.26459,0.26458 z m -0.52917,2.1648 c 0,0.1461 0.11846,0.26458 0.26459,0.26458 0.14613,0 0.26458,-0.11848 0.26458,-0.26458 z m 1.97237,-2.1648 c 0,-0.1461 -0.11848,-0.26458 -0.26459,-0.26458 -0.14613,0 -0.26458,0.11848 -0.26458,0.26458 z m -0.52917,2.1648 c 0,0.1461 0.11845,0.26458 0.26458,0.26458 0.14611,0 0.26459,-0.11848 0.26459,-0.26458 z m -4.78658,-0.26458 c -0.1461,0 -0.26458,0.11845 -0.26458,0.26458 0,0.1461 0.11848,0.26458 0.26458,0.26458 z m 5.7727397,0.52916 c 0.14613,0 0.26458,-0.11848 0.26458,-0.26458 0,-0.14613 -0.11845,-0.26458 -0.26458,-0.26458 z m -6.2537797,0.67347 c -0.1461201,0 -0.2645801,0.11846 -0.2645801,0.26459 0,0.14613 0.11846,0.26458 0.2645801,0.26458 z m 6.7348397,0.52917 c 0.14613,0 0.26458,-0.11845 0.26458,-0.26458 0,-0.14613 -0.11845,-0.26459 -0.26458,-0.26459 z m -6.4942997,-3.36743 h 6.2537697 v -0.52917 H 4.2814533 Z m 6.3924397,-0.4899 -3.1268997,-1.92424 -0.27734,0.45066 3.1268997,1.92424 z m -3.4042397,-1.92424 -3.12687,1.92424 0.27734,0.45066 3.12687,-1.92424 z m -2.29068,2.14955 v 2.1648 h 0.52917 v -2.1648 z m 1.44319,0 v 2.1648 h 0.52917 v -2.1648 z m 1.44317,0 v 2.1648 h 0.52917 v -2.1648 z m 1.4432,0 v 2.1648 h 0.52917 v -2.1648 z m -4.78658,2.42938 h 5.7727397 v -0.52916 H 4.5219533 Z m -0.48104,1.20264 h 6.7348397 v -0.52917 H 4.0409133 Z"
       fill="#ffffff"
       id="path11"
       style="stroke-width:0.264583" />
  </g>
</svg>
